<svg xmlns="http://www.w3.org/2000/svg" xmlns:xlink="http://www.w3.org/1999/xlink" viewBox="0 0 1200 675" width="1200"  height="675" >
  <defs>
    <style>
      .cls-1, .cls-5 {
        opacity: 0.1;
      }

      .cls-2 {
        fill: #1d1d1b;
      }

      .cls-3 {
        fill: url(#Fading_Sky);
      }

      .cls-4, .cls-5 {
        fill: #fff;
      }

      .cls-4 {
        opacity: 0.2;
      }
    </style>
    <linearGradient id="Fading_Sky" data-name="Fading Sky" x1="601.84" y1="-190.37" x2="597.29" y2="625.53" gradientUnits="userSpaceOnUse">
      <stop offset="0" stop-color="#2581c4"/>
      <stop offset="1" stop-color="#2581c4" stop-opacity="0"/>
    </linearGradient>
  </defs>
  <title>G4 M5 Wave Breakers Assets</title>
  <g id="Layer_11" data-name="Layer 11">
    <g class="cls-1">
      <path class="cls-2" d="M3,432s-6.5,0-6-1.5"/>
      <path class="cls-2" d="M-10.77,295.88a11.68,11.68,0,0,0,2.32,2.46,2,2,0,0,0,.72.32c.63.13,1.2.44,1.76.57a1.75,1.75,0,0,0,1.77-.57c1.27-1.26,3.54-3.54,3.8-5.05s1.77-10.37,1.77-13.91S.86,246.59.61,244.82s-.26-8.35-.26-8.35V235l-1.51-9.36v-2s-1-1-.76-1.77.25-10.11.25-10.11a19,19,0,0,1-.5-2.78c0-.76-.51-5.56-.51-6.57a62.38,62.38,0,0,0-1.77-10.87c-1-3.29-2.53-9.36-2.53-9.36l-.5-2.27a14.17,14.17,0,0,0-4.81-.76c-1.76.25-4.29.25-5.56,2.78s-3.28,14.16-3.28,15.67,1.26,19,1.26,19l1.27,14.16,1.26,23.26,1,8.34-.51,6.32s.76,10.62,1,11.37,3,7.34,3,7.34l1.52,7.58"/>
    </g>
    <rect class="cls-3" x="-7.01" y="-10.89" width="1211.83" height="691.23"/>
    <path class="cls-4" d="M540.16,381.87a6.39,6.39,0,0,0-1.32.33,4.24,4.24,0,0,1-1.81.7c-.74,0-2.71.08-3.62,0s-.74-.41-2.18-.37-1.23-.08-2,.49-.87.87-2.76.87-2.39-.13-2.55-.33.21-.17,0-.33-1-.33-1.36-.7-.2-1-.82-.58-.62.83-1.81,1a19.94,19.94,0,0,1-2.47.12,5.35,5.35,0,0,1-2.3-.28c-.91-.33-1.07-1.07-1.24-1.2a2,2,0,0,0-.74-.12v-.82c0-.13-.08-.41,0-.45s.37,0,.5-.29.45-1,.82-1.15a4.28,4.28,0,0,1,1.07-.13s-.53.87-.41,1,.25.82.45.7.91-.74,1.19-.7a1.19,1.19,0,0,1,.87.49c.2.33.12.54.25.5s.61-.17.7-.33.16-.5.41-.5a3.23,3.23,0,0,0,1.11,0c.29-.12.57-.2.61-.37s-.2-.49.13-.45.62.16.66,0-.21-.66.41-.49.2.37.66.41.61-.08.61.08.21.29.21.29a8.21,8.21,0,0,1,.53-.91c.25-.33.37-.53.5-.7a10.79,10.79,0,0,0,.49-1.15s.08-.37.33-.37.58-.24.82,0l.41.33s.17-.58.54-.62.53-.45.9-.41l.37,0s-.2-.41.09-.45l.29,0,.24-.41s.87-.41,1.07-.08.45.65.45.65,0-.37.21-.33l1,.21.2-.74.25-.49.58-.46,1,0s-.24-.32.25-.32.91,0,1-.13-.17-.49.37-.53l1.31-.09a.88.88,0,0,1,.5-.24c.24,0,0,.2.45.2s.33-.61.7-.41.66.66.86.74a5.78,5.78,0,0,1,1.44.37c.54.29.42,1.2.42,1.2s1.15.53,1.27.61.17.21.91.41,1.6.46,1.11.46-.83,0-1.16,0-1.23.08-1.23.08-.62.25-.37.41,0,.29.45.29.54-.45.91,0,.33.74.57.9.66.29.66.46-.24,1.07-.24,1.07a1.65,1.65,0,0,1-.83.16h-1.27s-.37-.33-.37-.12.53.12.16.41a7.34,7.34,0,0,0-.94.7c-.17.2-.09.37-.29.53a1.33,1.33,0,0,0-.33.46s.16-.25.86-.37a2.52,2.52,0,0,1,.95-.05c.37,0,.62-.28.86-.08s.66.37.25.7-.25.54-.91.66a12.29,12.29,0,0,1-1.27.16Z"/>
    <g>
      <path class="cls-5" d="M200.49,231.44s-4,.68-4,1.18-.33,0-1.51.51a17.73,17.73,0,0,0-2.19,1.34c-.67.34-3,1-3.53,1.18a14.79,14.79,0,0,0-2.53.67c-.5.34.67,1.35-.84.85s-1.52-1.18-2.19-1.18a23.08,23.08,0,0,1-3.2-.67,14.22,14.22,0,0,1-1.51-.51l1.35-.84a13.74,13.74,0,0,1-2.19-.84c-.51-.34-.17-.84-.17-1.35a5.06,5.06,0,0,0-.51-1.51,1.55,1.55,0,0,1-1.17-.51,4.48,4.48,0,0,1-.51-1.35s-.34-1-.84-.84-.67-.17-1.18.34-.67.34-1.68.84a2.92,2.92,0,0,0-1.35,1.35s-.67,1-.17,1.51a18.27,18.27,0,0,1,1.35,1.69s0,.84-1,.16l-3-2s-.17-.84-1.68-.5-1,.34-3.37,1-3.36,1-3.36,1a1.29,1.29,0,0,1-1.52-.67,7,7,0,0,0-1.68-2c-.68-.51-5-.85-5-.85s-5.89-.5-6.4-.16a32.78,32.78,0,0,1-5.21,1c-1.18.16-1.69-.17-3.37-.34s-3.87-.84-3.2,0,2.19,2.19,1.35,3-1.52,1.51-2,1.51-1.52-1.51-1.35-2.69-.17-1.85-1.34-1.35-1.35,1.69-2.19,1.69-1.35-1.85-1.85-1.35a3.81,3.81,0,0,0-1.35,1.85c-.17.84.17,1.85-2.69,1.85s-3.71-1-3.71-1.17-3.36,0-2.69.67,3.2,1.51.51,1.51-7.24.34-8.42-.5a8.41,8.41,0,0,0-5.89-1.85c-3,.17-3.87-.68-5.22,0s-3.87,2.52-6.56,3-5.89,1.68-7.41,1.68-4.88.17-6.22-1.18-2.7-2.86-2.7-2.86-1.51-1.85-1.51-2.69-.34-3,.84-2.7,1.85,1.69,2.36,1.18a24.78,24.78,0,0,1,3-1.85s2.18,0,.33-1-3.36-1.68-3-2.86,0-2.69.17-3.7-.67-2.19,1.18-2a13.94,13.94,0,0,1,4.38,1,18.29,18.29,0,0,0,2.69.84,1.43,1.43,0,0,0,.5-1.52c-.33-.84.17-1-.84-1.85s-3.87-1.85-4-2.35.51-1.35,1.85-1.52a20.92,20.92,0,0,1,4.55.51l1.85,1.51a1.44,1.44,0,0,1,0-1.51,13.32,13.32,0,0,1,2.19-1.85s-.17-2.53.84-2.7,4.88-1,4.88-1l1.85,1.52s1,.5,1.52.17.67.67.5-.34-1.85-2.19-1.51-2.86.84-2,1.68-4.21,1-3.53,3-4,2.52-2.19,3.36-1-.16,4.55,0,5.56a2.92,2.92,0,0,0,1.18,1.68,1.28,1.28,0,0,1,.34-2,8.07,8.07,0,0,1,3.2-1.52,6.07,6.07,0,0,0,2.19-.84s1.34-.67,1.51-1.18,1-2.18,1-2.18a5.56,5.56,0,0,1,3.2-.68c1.34.34-.34-.67.84-1.34s-.67-1.85,2-2.53a20,20,0,0,1,5.38-.5s.85,1.51,1.35,1.34a38.68,38.68,0,0,1,4-.16s1.85-.51,1.35-.68-1.85-.17-1.69-1.18.51-1.34.34-1.85-.34-.84-1-.17-.84,1.35-1.35.85a5,5,0,0,1-.84-1.69s-1.34-1.34,0-1.68,2.36-1.18,2-1.68-1.34-2.36-1.34-2.36.5-1.35,1.68-1.18,2.69-1.68,3.87-1.85a14.9,14.9,0,0,1,4,.67l4.88,1.18,2.86.84.67.85a6.54,6.54,0,0,1,1.35-.85,19.27,19.27,0,0,1,2.19-.33,3,3,0,0,1,1.35-1.18c1-.51,1.51-1.85,2-2.19s4.89.34,5.9.67A19.41,19.41,0,0,1,163.8,181l1.68,2.86a6.35,6.35,0,0,1,1.52-1.34,2.39,2.39,0,0,1,2.36.67,27.2,27.2,0,0,0,4.2,2.53s2.86-.68,3-.17.51,1.34.51,1.34a16.68,16.68,0,0,0,2.35,2,8.6,8.6,0,0,1,3,1.85,18.16,18.16,0,0,1,1.85,3.54,39.94,39.94,0,0,0,2.87,3.2c.5.33,3.53,2.18,3.53,2.18l2.86-1.34a12,12,0,0,1,2.36-.84c.5,0,1.34-1.52,1.34-1.52s-.16-1.18,2.87-1a23.08,23.08,0,0,1,6.73,1.85s2.19,1.69,2.35,2.53a8.94,8.94,0,0,1-.67,3.2c-.17.5-2.52,1.34-1.85,1.85a5.94,5.94,0,0,0,2.36,1,3.86,3.86,0,0,1,2.18,1.18,5.17,5.17,0,0,0,2.7,1.34c.67,0,3.87-.17,4.54.84s.84,3.71-.34,4.38-6.06,2.52-5.89,3-1.51-.67.17.5-.67,1.69,2.53,1a38,38,0,0,0,4.88-1.34c1.17-.34,2.52-1,3.53.33s.34,2.19,1.85,1.52-.5-2.19,2.36-2,3.87.5,5,2.19-.51,3.36,0,4.2,2.19,1.86,1.68,3-.17,3.87-2.19,4-6.56.84-6.56.84l-3.2-1.34s-1.51,2.52-3.36,3-7.24,2.19-9.26,2-9.43.17-8.08-.68-.34-2-.34-2"/>
      <path class="cls-5" d="M444.65,281.69l3.28-.86,1.21-.44a1.72,1.72,0,0,1,1.38-.6c1,0,4-.09,4.92,0a19.9,19.9,0,0,0,3.28.09c1.29-.09.95-.35,1.21-.95s-.09-.26.6-.78a3.14,3.14,0,0,0,1-1.12s-.17-.78.43-.78a28.66,28.66,0,0,1,3-.34c.78.08,2.77.34,2.77,0a1.6,1.6,0,0,0-.35-.78l.69-1.21s4.49.09,5.27.17a14.33,14.33,0,0,0,3.1.26c.35-.17,1-.77,1.82-.6a14.38,14.38,0,0,0,2.24.43h1a4.05,4.05,0,0,0-.69-.86c-.26-.18-1.3-.44-.69-.44s3.28.09,3.28.09.69.43,1,.26-.26-.78.95-.78,2.33-.08,2.33-.08l.95-.69s-.26-.95.17-.78.18,1,1.39,1,1-1.47,1-1.47.35-.69.09-.69-.61.09-.43-.43a2.57,2.57,0,0,0-.09-1.3s-1.29-.77-.09-.6,1.3.43,1.56.09.6-.69.52-1-.69-.6-.18-.69,3.37-.43,3.11-.78-.95-.51-1.29-.95-1.21-1.29-1.56-1.64-.26-1.29-.95-1.29-2-1.56-2.5-1.47-1.38.17-1.38.17-1.12-.08-.95-.43a10.44,10.44,0,0,0,.86-2.07,2.82,2.82,0,0,0-.34-.95s-.35-1.55-.78-1.64-.78-.43-.95-.09-.17.95-.43.7-.78-.52-.78-.78.35-.78,0-1.12-.69-1.21-1.21-1.13a2.21,2.21,0,0,1-1.55-.17c-.26-.26-1.3-2.76-1.64-2.93s-2-1.3-2.5-1-.35.78-.87.95-1.64-.78-1.9-.26.26.43-.26.52-1.29-.61-1.81-.35.26.78-.86.52a32.93,32.93,0,0,0-4.14-.34,4.73,4.73,0,0,0-2,.95c-.52.6-.43,1.2-.69,1.38s-2-.52-2-.52l-1.72-.17s-1.21-1.21-1.56-1.21-1.9.17-1.9.17l-1.2.09-.69.08-1.39-1.21s-.6.87-1,.95-1.73.18-1.73.18.52-1.21.26-1.21-1.38.69-2,.86-.35.43-.61.17.17-1.12-.43-.86a5.86,5.86,0,0,1-1,.35s-.26-1.38-1.2-1.38-3.89,0-5,.86-2.76,1.72-2.94,2.5.18,1.64-.26,2.25-2.58-.44-2.33.69.61,3.36,1.13,3.62,1.55.09,1.12.69-1.21.18-.78,1.3.61,1.46,1.3,1.81,1.64.6,1,.95-1.21.43-1.9.86-1.46,2.68-1.9,2.85-2,1-2.07,1.38-.08,1.21-.6,1.3a3.29,3.29,0,0,1-1.56,0c-.51-.18-1.81-.43-1.81-.43s-.6-1.56-1-1.56a3.48,3.48,0,0,0-2.25.87c-.95.77-2.16,2.33-1.12,3a2.92,2.92,0,0,0,2.42.77,5.53,5.53,0,0,1,2.5.87c.34.08,1.29.26,1.64,0s.09-1.13,2-1.13a28.93,28.93,0,0,1,3.46.09,10.52,10.52,0,0,0,2.41,0c1-.09,2.25-.09,2.77-.17s1.21-.52,1.21-.17.17.86-.44.86a16.23,16.23,0,0,0-1.64-.17,6.21,6.21,0,0,0-2.24.34c-.78.43-1.3,0-.86,1.3s1.38.95,1.46,1.72-.43,2.07.18,2.42.34.6,2,.6,1.47.44,1.47.44-1.38,1-1.38,1.38a2.66,2.66,0,0,1-.78,1.46c-.34.26-2-.17-2.07.52s.26,1.73.69,1.64a2.2,2.2,0,0,0,1.12-.43,11.51,11.51,0,0,1,1.82-.78Z"/>
      <path class="cls-5" d="M709.7,232.53s6,.92,7.34,1.84,6,3.67,10.09,3.9,15.14.45,20.18.23,4.13-2.3,12.16-2.07,6.88-.46,11,2.75S775.3,244,785.85,244s13.3-.69,14.22-1.83-1.15-.92-.23-1.84,5.74-1.83,7.57-3.9,1.15-5.73,4.59-3.21,3.44,4.59,10.09,5.5,10.78.46,13.76.69a31,31,0,0,0,12.85-1.6c5-1.84,6-6,6.88-6.65s4.13-.69,4.13-.69v-4.59c0-.69.46-2.29-.23-2.52s-2.07,0-2.75-1.61-2.53-5.73-4.59-6.42a25,25,0,0,0-6-.69s3,4.82,2.29,5.51-1.38,4.58-2.52,3.89-5.05-4.12-6.66-3.89a6.55,6.55,0,0,0-4.81,2.75c-1.15,1.83-.69,3-1.38,2.75s-3.44-.92-3.9-1.83-.92-2.76-2.29-2.76-4.59.46-6.2-.23-3.21-1.14-3.44-2.06,1.15-2.75-.68-2.52-3.44.91-3.67.23,1.14-3.67-2.3-2.76-1.14,2.07-3.67,2.3-3.44-.46-3.44.46-1.15,1.6-1.15,1.6a41.42,41.42,0,0,0-3-5.05c-1.37-1.83-2.06-3-2.75-3.89a59,59,0,0,1-2.75-6.43s-.46-2.06-1.84-2.06-3.21-1.38-4.58-.23-2.3,1.83-2.3,1.83-.92-3.21-3-3.44-3-2.52-5-2.29l-2.06.23s1.15-2.29-.46-2.52L773,194l-1.37-2.3s-4.82-2.29-6-.46-2.52,3.67-2.52,3.67.23-2.06-1.15-1.83-5.5,1.15-5.5,1.15l-1.15-4.13L754,187.34l-3.21-2.52-5.51.23s1.38-1.83-1.38-1.83-5,.23-5.5-.69.92-2.75-2.07-3-7.34-.46-7.34-.46a4.78,4.78,0,0,0-2.75-1.38c-1.37,0,.23,1.15-2.52,1.15s-1.84-3.44-3.9-2.3-3.67,3.67-4.82,4.13-5,.46-8,2.07-2.3,6.65-2.3,6.65-6.42,3-7.11,3.44-.92,1.15-5,2.29-8.94,2.53-6.19,2.53,4.59.23,6.42.23,6.89.45,6.89.45,3.44,1.38,2.06,2.3.23,1.6-2.52,1.6-3-2.52-5-.23-1.83,4.13-3.21,5-3.67,1.61-3.67,2.52a59.71,59.71,0,0,0,1.38,6s1.37.92,4.58.92h7.11s2.07-1.84,2.07-.69-3,.69-.92,2.29,4.36,2.75,5.28,3.9.45,2.06,1.6,3a7.51,7.51,0,0,1,1.84,2.53s-.92-1.38-4.82-2.07-3.21-.23-5.28-.23-3.44-1.6-4.81-.46-3.67,2.07-1.38,3.9,1.38,3,5,3.67a68.15,68.15,0,0,0,7.11.92Z"/>
      <path class="cls-5" d="M619,347.66s-.85.14-.85.24-.07,0-.32.11a4.85,4.85,0,0,0-.45.28c-.15.07-.64.21-.75.25a2.78,2.78,0,0,0-.53.14c-.1.07.14.28-.17.18s-.32-.25-.46-.25a5.32,5.32,0,0,1-.67-.14l-.32-.11.28-.17a3.12,3.12,0,0,1-.46-.18c-.1-.07,0-.18,0-.28a1,1,0,0,0-.11-.32.33.33,0,0,1-.25-.11.84.84,0,0,1-.1-.28s-.07-.21-.18-.18-.14,0-.25.07-.14.08-.35.18a.62.62,0,0,0-.28.28s-.14.22,0,.32a4,4,0,0,1,.29.36s0,.17-.22,0l-.63-.42s0-.18-.36-.11-.21.07-.7.21l-.71.21s-.17.08-.32-.14a1.55,1.55,0,0,0-.35-.42,4.5,4.5,0,0,0-1.06-.18,8.25,8.25,0,0,0-1.34,0,7.45,7.45,0,0,1-1.1.21,3.34,3.34,0,0,1-.7-.07c-.35,0-.81-.18-.67,0s.46.46.28.63-.32.32-.42.32-.32-.32-.29-.56,0-.39-.28-.29-.28.36-.46.36-.28-.39-.39-.28a.84.84,0,0,0-.28.38c0,.18,0,.39-.56.39s-.78-.21-.78-.24-.71,0-.57.14.67.31.11.31a5.52,5.52,0,0,1-1.77-.1,1.71,1.71,0,0,0-1.23-.39c-.64,0-.81-.14-1.1,0a5.18,5.18,0,0,1-1.37.64c-.57.1-1.24.35-1.56.35s-1,0-1.31-.25-.56-.6-.56-.6-.32-.39-.32-.56-.07-.64.18-.57.39.35.49.25a5,5,0,0,1,.64-.39s.46,0,.07-.21-.71-.36-.64-.6a7.28,7.28,0,0,0,0-.78c0-.21-.14-.46.25-.42a2.65,2.65,0,0,1,.91.21,4.29,4.29,0,0,0,.57.17s.18-.14.11-.31,0-.21-.18-.39-.81-.39-.85-.5.11-.28.39-.31a4.21,4.21,0,0,1,1,.1l.39.32a.33.33,0,0,1,0-.32,3.25,3.25,0,0,1,.46-.39s0-.53.18-.56l1-.21.39.31s.21.11.32,0,.14.14.1-.07-.38-.46-.31-.6.17-.42.35-.88.21-.75.63-.85.53-.46.71-.21,0,.95,0,1.16a.67.67,0,0,0,.25.36.28.28,0,0,1,.07-.43,1.6,1.6,0,0,1,.67-.32,1.35,1.35,0,0,0,.46-.17s.28-.14.32-.25a4.51,4.51,0,0,1,.21-.46,1.17,1.17,0,0,1,.67-.14c.28.07-.07-.14.18-.28s-.14-.39.42-.53a4.38,4.38,0,0,1,1.13-.11s.18.32.28.28.85,0,.85,0,.39-.11.28-.14-.39,0-.35-.25.11-.28.07-.39-.07-.18-.21,0-.18.28-.28.17a.93.93,0,0,1-.18-.35s-.28-.28,0-.35.49-.25.42-.36-.28-.49-.28-.49.11-.28.35-.25.57-.35.82-.39a3.37,3.37,0,0,1,.84.14l1,.25.6.18.14.17a1.29,1.29,0,0,1,.28-.17,3,3,0,0,1,.46-.07.66.66,0,0,1,.28-.25c.22-.11.32-.39.43-.46a4,4,0,0,1,1.23.14,3.78,3.78,0,0,1,.71.46l.35.6a1.36,1.36,0,0,1,.32-.28.49.49,0,0,1,.5.14,5.14,5.14,0,0,0,.88.53s.6-.14.63,0l.11.29a3.55,3.55,0,0,0,.49.42,1.8,1.8,0,0,1,.64.39,3.59,3.59,0,0,1,.39.74,7.57,7.57,0,0,0,.6.67l.74.46.6-.28a2.48,2.48,0,0,1,.5-.18c.1,0,.28-.32.28-.32s0-.24.6-.21a5,5,0,0,1,1.41.39s.46.35.5.53a1.84,1.84,0,0,1-.15.67c0,.11-.52.28-.38.39a1.08,1.08,0,0,0,.49.21.82.82,0,0,1,.46.25,1,1,0,0,0,.57.28c.14,0,.81,0,1,.18s.18.78-.07.92-1.27.53-1.24.63-.32-.14,0,.11-.14.35.53.21a7.78,7.78,0,0,0,1-.28c.25-.07.53-.21.74.07s.07.46.39.32-.1-.46.5-.43.81.11,1.06.46-.11.71,0,.88.45.39.35.64,0,.81-.46.85-1.38.17-1.38.17l-.67-.28a1.6,1.6,0,0,1-.71.64,8.94,8.94,0,0,1-1.94.42c-.42,0-2,0-1.69-.14s-.07-.42-.07-.42"/>
      <path class="cls-5" d="M1077.79,195.61s-7,1.07-8.57,2.14-7,4.29-11.78,4.56-17.67.53-23.56.26-4.82-2.67-14.19-2.41-8-.53-12.86,3.22-5.62,5.62-17.94,5.62-15.53-.8-16.6-2.14,1.34-1.07.27-2.14-6.7-2.15-8.84-4.56-1.34-6.69-5.36-3.75-4,5.36-11.78,6.43-12.58.54-16.06.8a36.13,36.13,0,0,1-15-1.87c-5.89-2.14-7-7-8-7.77s-4.82-.8-4.82-.8v-5.35c0-.81-.54-2.68.26-2.95s2.41,0,3.22-1.87,2.94-6.7,5.35-7.5a29.09,29.09,0,0,1,7-.81s-3.49,5.63-2.68,6.43,1.6,5.36,2.94,4.55,5.89-4.82,7.77-4.55a7.73,7.73,0,0,1,5.62,3.21c1.34,2.15.81,3.49,1.61,3.22s4-1.07,4.55-2.14,1.07-3.22,2.68-3.22,5.35.54,7.23-.27,3.75-1.33,4-2.41-1.34-3.21.8-2.94,4,1.07,4.28.27-1.34-4.29,2.68-3.22,1.34,2.41,4.29,2.68,4-.53,4,.54,1.34,1.87,1.34,1.87a49.48,49.48,0,0,1,3.48-5.89c1.61-2.14,2.41-3.48,3.22-4.55s3.21-7.5,3.21-7.5.53-2.41,2.14-2.41,3.75-1.61,5.36-.27,2.67,2.14,2.67,2.14,1.08-3.74,3.49-4,3.48-2.95,5.89-2.68l2.41.27s-1.34-2.68.53-3l1.88-.27,1.6-2.67s5.63-2.68,7-.54,2.94,4.29,2.94,4.29-.27-2.41,1.34-2.15,6.43,1.34,6.43,1.34l1.34-4.82,1.6-3.21,3.75-3,6.43.27s-1.61-2.14,1.6-2.14,5.9.27,6.43-.8-1.07-3.22,2.41-3.49,8.57-.53,8.57-.53a5.62,5.62,0,0,1,3.21-1.61c1.61,0-.26,1.34,3,1.34s2.14-4,4.55-2.68,4.29,4.29,5.62,4.82,5.9.54,9.38,2.41,2.67,7.77,2.67,7.77,7.5,3.48,8.31,4,1.07,1.33,5.89,2.67,10.44,2.95,7.23,2.95-5.36.27-7.5.27-8,.53-8,.53-4,1.61-2.41,2.68-.27,1.87,2.94,1.87,3.48-2.94,5.89-.26,2.14,4.82,3.75,5.89,4.29,1.87,4.29,2.94a70,70,0,0,1-1.61,7s-1.61,1.07-5.36,1.07h-8.3s-2.41-2.15-2.41-.81,3.48.81,1.07,2.68-5.08,3.21-6.16,4.55-.53,2.41-1.87,3.48a8.79,8.79,0,0,0-2.14,2.95s1.07-1.61,5.62-2.41,3.75-.27,6.16-.27,4-1.87,5.62-.53,4.29,2.41,1.61,4.55-1.61,3.48-5.89,4.28a77.69,77.69,0,0,1-8.3,1.07Z"/>
      <path class="cls-4" d="M392.31,95.85S384,97.23,384,98.27s-.7,0-3.12,1-3.11,2.07-4.49,2.76-6.22,2.08-7.26,2.42-4.15.69-5.18,1.38,1.38,2.77-1.73,1.73-3.11-2.42-4.5-2.42a43.8,43.8,0,0,1-6.56-1.38,27.58,27.58,0,0,1-3.12-1l2.77-1.72a27.27,27.27,0,0,1-4.49-1.73c-1-.69-.35-1.73-.35-2.77a10.38,10.38,0,0,0-1-3.11,3.24,3.24,0,0,1-2.42-1,9.22,9.22,0,0,1-1-2.76s-.7-2.08-1.73-1.73-1.39-.35-2.42.69-1.39.69-3.46,1.73a6,6,0,0,0-2.77,2.76s-1.38,2.08-.34,3.12a36.26,36.26,0,0,1,2.76,3.45s0,1.73-2.07.35l-6.22-4.15s-.35-1.73-3.46-1-2.07.69-6.91,2.08S308,99,308,99s-1.72.69-3.11-1.38a14.55,14.55,0,0,0-3.45-4.15C300,92.39,291,91.7,291,91.7s-12.09-1-13.13-.34-8.3,1.72-10.72,2.07-3.45-.35-6.91-.69-7.95-1.73-6.57,0,4.49,4.49,2.77,6.22-3.12,3.11-4.15,3.11-3.11-3.11-2.77-5.53-.34-3.8-2.76-2.76-2.77,3.45-4.5,3.45-2.76-3.8-3.8-2.76-2.42,2.07-2.77,3.8.35,3.8-5.53,3.8-7.6-2.07-7.6-2.42-6.92,0-5.53,1.39,6.57,3.11,1,3.11-14.86.69-17.28-1a17.25,17.25,0,0,0-12.1-3.8c-6.22.34-7.95-1.39-10.72,0s-7.95,5.18-13.48,6.22S152.4,109,149.29,109s-10,.34-12.79-2.42-5.53-5.88-5.53-5.88-3.11-3.8-3.11-5.53-.69-6.22,1.73-5.53,3.8,3.45,4.84,2.42,6.22-3.81,6.22-3.81,4.49,0,.69-2.07-6.91-3.46-6.22-5.88,0-5.53.34-7.6-1.38-4.5,2.42-4.15a29,29,0,0,1,9,2.07,36.74,36.74,0,0,0,5.53,1.73s1.73-1.38,1-3.11.35-2.07-1.73-3.8-8-3.8-8.3-4.84,1-2.77,3.81-3.11,9.33,1,9.33,1l3.8,3.11a3,3,0,0,1,0-3.11,28.5,28.5,0,0,1,4.5-3.81s-.35-5.18,1.73-5.53,10-2.07,10-2.07l3.8,3.11s2.08,1,3.11.34,1.39,1.39,1-.69-3.8-4.49-3.11-5.87,1.73-4.15,3.46-8.65,2.07-7.26,6.22-8.29,5.19-4.5,6.91-2.08-.34,9.34,0,11.41a6,6,0,0,0,2.42,3.46,2.64,2.64,0,0,1,.7-4.15c2.76-1.73,3.45-2.42,6.56-3.11a12.62,12.62,0,0,0,4.5-1.73s2.76-1.38,3.11-2.42S217.39,24,217.39,24s3.81-2.08,6.57-1.39-.69-1.38,1.73-2.76-1.38-3.8,4.15-5.19a41.06,41.06,0,0,1,11.06-1s1.73,3.11,2.77,2.76S252,16,252,16s3.8-1,2.77-1.39-3.81-.34-3.46-2.42,1-2.76.69-3.8-.69-1.73-2.07-.35-1.73,2.77-2.77,1.73a10.14,10.14,0,0,1-1.73-3.45s-2.76-2.77,0-3.46S250.23.44,249.54-.6s-2.76-4.84-2.76-4.84,1-2.76,3.45-2.42,5.53-3.45,8-3.8,8.3,1.38,8.3,1.38l10,2.42,5.87,1.73,1.39,1.73a13,13,0,0,1,2.76-1.73A37.43,37.43,0,0,1,291-6.82a6.33,6.33,0,0,1,2.77-2.42c2.07-1,3.11-3.8,4.15-4.49S308-13,310-12.35,317-7.86,317-7.86L320.41-2s2.07-2.42,3.11-2.77a4.9,4.9,0,0,1,4.84,1.39C330.09-1.63,337,1.82,337,1.82s5.88-1.38,6.22-.34,1,2.76,1,2.76,3.46,3.46,4.84,4.15,4.49,1.73,6.22,3.8,3.81,7.26,3.81,7.26S364,25.33,365,26s7.26,4.49,7.26,4.49l5.88-2.76S381.94,26,383,26s2.76-3.11,2.76-3.11-.34-2.42,5.88-2.08,13.83,3.81,13.83,3.81,4.49,3.45,4.84,5.18-1,5.53-1.38,6.57-5.19,2.77-3.81,3.8a12.19,12.19,0,0,0,4.84,2.08c1.73.34,3.81,1.38,4.5,2.42s4.14,2.76,5.53,2.76,7.95-.34,9.33,1.73,1.73,7.61-.69,9-12.45,5.18-12.1,6.22-3.11-1.38.35,1-1.39,3.46,5.18,2.07a75.34,75.34,0,0,0,10-2.76c2.42-.69,5.18-2.08,7.26.69s.69,4.49,3.8,3.11-1-4.49,4.84-4.15,7.95,1,10.37,4.5-1,6.91,0,8.64,4.49,3.8,3.46,6.22-.35,8-4.5,8.3-13.48,1.73-13.48,1.73L437.25,91s-3.11,5.19-6.91,6.22-14.87,4.5-19,4.15-19.36.35-16.6-1.38-.69-4.15-.69-4.15"/>
      <path class="cls-4" d="M862.38,112.55l9-2.35,3.29-1.18a4.7,4.7,0,0,1,3.77-1.65c2.59,0,10.82-.23,13.41,0a53.75,53.75,0,0,0,9,.24c3.53-.24,2.59-.94,3.29-2.59s-.23-.71,1.65-2.12a8.49,8.49,0,0,0,2.59-3.06s-.47-2.12,1.18-2.12,6.12-1.17,8.23-.94,7.54.94,7.54,0a4.4,4.4,0,0,0-1-2.12l1.89-3.29s12.24.23,14.35.47,7.54,1.17,8.48.7,2.82-2.11,4.94-1.64a39.13,39.13,0,0,0,6.12,1.17h2.83A11.29,11.29,0,0,0,961,89.72c-.7-.47-3.53-1.18-1.88-1.18s8.94.24,8.94.24,1.89,1.17,2.83.7-.71-2.11,2.59-2.11,6.35-.24,6.35-.24l2.59-1.88s-.7-2.59.47-2.12.47,2.59,3.77,2.59,2.82-4,2.82-4,.94-1.89.24-1.89-1.65.24-1.18-1.17a6.91,6.91,0,0,0-.23-3.53s-3.53-2.12-.24-1.65,3.53,1.18,4.24.23,1.64-1.88,1.41-2.82-1.88-1.65-.47-1.88,9.18-1.18,8.47-2.12-2.59-1.41-3.53-2.59-3.29-3.53-4.24-4.47-.7-3.53-2.58-3.53-5.42-4.24-6.83-4-3.77.47-3.77.47-3.06-.24-2.59-1.18,2.36-4.71,2.36-5.65a7.5,7.5,0,0,0-.94-2.59s-.94-4.24-2.12-4.47-2.12-1.18-2.59-.24-.47,2.59-1.18,1.89-2.12-1.42-2.12-2.12.95-2.12,0-3.06-1.88-3.3-3.29-3.06-3.53.23-4.24-.47-3.53-7.53-4.47-8-5.41-3.53-6.83-2.82-.94,2.12-2.35,2.59-4.47-2.12-5.18-.71.71,1.18-.7,1.42-3.53-1.65-4.95-.95.71,2.12-2.35,1.42-11.3-1-11.3-1-4,1-5.41,2.59-1.18,3.3-1.88,3.77-5.42-1.41-5.42-1.41l-4.71-.47s-3.29-3.3-4.23-3.3-5.18.47-5.18.47l-3.3.24-1.88.23-3.77-3.29s-1.64,2.35-2.82,2.59-4.71.47-4.71.47,1.42-3.3.71-3.3-3.77,1.89-5.41,2.36-.95,1.17-1.65.47.47-3.06-1.18-2.36a15.49,15.49,0,0,1-2.82.94s-.71-3.76-3.3-3.76-10.59,0-13.65,2.35-7.53,4.71-8,6.83.47,4.47-.71,6.12-7.06-1.18-6.35,1.88,1.64,9.18,3.06,9.89,4.23.23,3.06,1.88-3.3.47-2.12,3.53,1.64,4,3.53,4.94,4.47,1.65,2.82,2.59-3.29,1.18-5.18,2.36-4,7.29-5.17,7.76S834.84,73,834.61,74s-.24,3.29-1.65,3.53a8.57,8.57,0,0,1-4.24,0c-1.41-.47-4.94-1.18-4.94-1.18s-1.65-4.23-2.82-4.23a9.46,9.46,0,0,0-6.12,2.35c-2.59,2.12-5.89,6.36-3.06,8.24s3.53,2.35,6.59,2.12,5.88,2.11,6.82,2.35,3.53.71,4.47,0,.24-3.06,5.42-3.06a80.07,80.07,0,0,1,9.41.24,30.75,30.75,0,0,0,6.59,0c2.83-.24,6.12-.24,7.53-.47s3.3-1.42,3.3-.48.47,2.36-1.18,2.36-3.76-.71-4.47-.47-4-.24-6.12.94-3.53,0-2.35,3.53,3.76,2.59,4,4.71-1.18,5.65.47,6.59.94,1.64,5.41,1.64,4,1.18,4,1.18-3.76,2.83-3.76,3.77a7.45,7.45,0,0,1-2.12,4c-.94.71-5.41-.47-5.65,1.41s.71,4.71,1.88,4.47a6.2,6.2,0,0,0,3.06-1.17A30,30,0,0,1,860,114.2Z"/>
    </g>
    <g class="cls-1">
      <path class="cls-2" d="M1208,295.88a11.4,11.4,0,0,0,2.32,2.46,2.09,2.09,0,0,0,.71.32c.63.13,1.2.44,1.77.57a1.75,1.75,0,0,0,1.77-.57c1.27-1.26,3.54-3.54,3.79-5.05s1.77-10.37,1.77-13.91-.5-33.11-.76-34.88-.25-8.35-.25-8.35V235l-1.51-9.36v-2s-1-1-.76-1.77.25-10.11.25-10.11a18.68,18.68,0,0,1-.51-2.78c0-.76-.5-5.56-.5-6.57a62.38,62.38,0,0,0-1.77-10.87c-1-3.29-2.53-9.36-2.53-9.36l-.5-2.27a14.17,14.17,0,0,0-4.81-.76c-1.77.25-4.3.25-5.56,2.78s-3.29,14.16-3.29,15.67,1.27,19,1.27,19l1.26,14.16,1.27,23.26,1,8.34-.51,6.32s.76,10.62,1,11.37,3,7.34,3,7.34l1.51,7.58"/>
    </g>
    <g class="cls-1">
      <path class="cls-2" d="M1210,295.88a11.68,11.68,0,0,0,2.32,2.46,2.09,2.09,0,0,0,.71.32c.64.13,1.2.44,1.77.57a1.75,1.75,0,0,0,1.77-.57c1.27-1.26,3.54-3.54,3.79-5.05s1.77-10.37,1.77-13.91-.5-33.11-.75-34.88-.26-8.35-.26-8.35V235l-1.51-9.36v-2s-1-1-.76-1.77.25-10.11.25-10.11a19,19,0,0,1-.5-2.78c0-.76-.51-5.56-.51-6.57a62.38,62.38,0,0,0-1.77-10.87c-1-3.29-2.53-9.36-2.53-9.36l-.5-2.27a14.17,14.17,0,0,0-4.81-.76c-1.77.25-4.29.25-5.56,2.78s-3.28,14.16-3.28,15.67,1.26,19,1.26,19l1.26,14.16,1.27,23.26,1,8.34-.51,6.32s.76,10.62,1,11.37,3,7.34,3,7.34l1.51,7.58"/>
    </g>
  </g>
<script xmlns="" type="text/javascript" src="chrome-extension://hejbmebodbijjdhflfknehhcgaklhano/../window/testing-library.js"/></svg>